HIERARCHY
ROOT hip
{
  OFFSET 0 0 0
  CHANNELS 6 Xposition Yposition Zposition Zrotation Yrotation Xrotation
  JOINT abdomen
  {
    OFFSET 0 20.6881 -0.73152
    CHANNELS 3 Zrotation Xrotation Yrotation
    JOINT chest
    {
      OFFSET 0 11.7043 -0.48768
      CHANNELS 3 Zrotation Xrotation Yrotation
      JOINT neck
      {
        OFFSET 0 22.1894 -2.19456
        CHANNELS 3 Zrotation Xrotation Yrotation
        JOINT head
        {
          OFFSET -0.24384 7.07133 1.2192
          CHANNELS 3 Zrotation Xrotation Yrotation
          JOINT leftEye
          {
            OFFSET 4.14528 8.04674 8.04672
            CHANNELS 3 Zrotation Xrotation Yrotation
            End Site
            {
              OFFSET 1 0 0
            }
          }
          JOINT rightEye
          {
            OFFSET -3.6576 8.04674 8.04672
            CHANNELS 3 Zrotation Xrotation Yrotation
            End Site
            {
              OFFSET 1 0 0
            }
          }
        }
      }
      JOINT rCollar
      {
        OFFSET -2.68224 19.2634 -4.8768
        CHANNELS 3 Zrotation Xrotation Yrotation
        JOINT rShldr
        {
          OFFSET -8.77824 -1.95073 1.46304
          CHANNELS 3 Zrotation Xrotation Yrotation
          JOINT rForeArm
          {
            OFFSET -28.1742 -1.7115 0.48768
            CHANNELS 3 Zrotation Xrotation Yrotation
            JOINT rHand
            {
              OFFSET -22.5879 0.773209 7.07136
              CHANNELS 3 Zrotation Xrotation Yrotation
              JOINT rThumb1
              {
                OFFSET -1.2192 -0.487915 3.41376
                CHANNELS 3 Zrotation Xrotation Yrotation
                JOINT rThumb2
                {
                  OFFSET -3.37035 -0.52449 3.41376
                  CHANNELS 3 Zrotation Xrotation Yrotation
                  End Site
                  {
                    OFFSET -1.78271 -1.18214 1.43049
                  }
                }
              }
              JOINT rIndex1
              {
                OFFSET -7.75947 0.938293 5.60832
                CHANNELS 3 Zrotation Xrotation Yrotation
                JOINT rIndex2
                {
                  OFFSET -2.54057 -0.884171 1.56538
                  CHANNELS 3 Zrotation Xrotation Yrotation
                  End Site
                  {
                    OFFSET -1.62519 -0.234802 1.16502
                  }
                }
              }
              JOINT rMid1
              {
                OFFSET -8.24714 1.18213 3.41376
                CHANNELS 3 Zrotation Xrotation Yrotation
                JOINT rMid2
                {
                  OFFSET -3.10165 -0.590103 1.0647
                  CHANNELS 3 Zrotation Xrotation Yrotation
                  End Site
                  {
                    OFFSET -2.48547 -0.328903 0.83742
                  }
                }
              }
              JOINT rRing1
              {
                OFFSET -8.82822 0.546677 1.51678
                CHANNELS 3 Zrotation Xrotation Yrotation
                JOINT rRing2
                {
                  OFFSET -2.60934 -0.819778 -0.0198488
                  CHANNELS 3 Zrotation Xrotation Yrotation
                  End Site
                  {
                    OFFSET -2.33842 -0.294052 0.168128
                  }
                }
              }
              JOINT rPinky1
              {
                OFFSET -8.27202 -0.0477905 -0.4584
                CHANNELS 3 Zrotation Xrotation Yrotation
                JOINT rPinky2
                {
                  OFFSET -1.82734 -0.647385 -0.700984
                  CHANNELS 3 Zrotation Xrotation Yrotation
                  End Site
                  {
                    OFFSET -1.69225 -0.51767 -0.607171
                  }
                }
              }
            }
          }
        }
      }
      JOINT lCollar
      {
        OFFSET 2.68224 19.2634 -4.8768
        CHANNELS 3 Zrotation Xrotation Yrotation
        JOINT lShldr
        {
          OFFSET 8.77824 -1.95073 1.46304
          CHANNELS 3 Zrotation Xrotation Yrotation
          JOINT lForeArm
          {
            OFFSET 28.1742 -1.7115 0.48768
            CHANNELS 3 Zrotation Xrotation Yrotation
            JOINT lHand
            {
              OFFSET 22.5879 0.773209 7.07136
              CHANNELS 3 Zrotation Xrotation Yrotation
              JOINT lThumb1
              {
                OFFSET 1.2192 -0.487915 3.41376
                CHANNELS 3 Zrotation Xrotation Yrotation
                JOINT lThumb2
                {
                  OFFSET 3.37035 -0.52449 3.41376
                  CHANNELS 3 Zrotation Xrotation Yrotation
                  End Site
                  {
                    OFFSET 1.78271 -1.18214 1.43049
                  }
                }
              }
              JOINT lIndex1
              {
                OFFSET 7.75947 0.938293 5.60832
                CHANNELS 3 Zrotation Xrotation Yrotation
                JOINT lIndex2
                {
                  OFFSET 2.54057 -0.884171 1.56538
                  CHANNELS 3 Zrotation Xrotation Yrotation
                  End Site
                  {
                    OFFSET 1.62519 -0.234802 1.16502
                  }
                }
              }
              JOINT lMid1
              {
                OFFSET 8.24714 1.18213 3.41376
                CHANNELS 3 Zrotation Xrotation Yrotation
                JOINT lMid2
                {
                  OFFSET 3.10165 -0.590103 1.0647
                  CHANNELS 3 Zrotation Xrotation Yrotation
                  End Site
                  {
                    OFFSET 2.48547 -0.328903 0.83742
                  }
                }
              }
              JOINT lRing1
              {
                OFFSET 8.82822 0.546677 1.51678
                CHANNELS 3 Zrotation Xrotation Yrotation
                JOINT lRing2
                {
                  OFFSET 2.60934 -0.819778 -0.0198488
                  CHANNELS 3 Zrotation Xrotation Yrotation
                  End Site
                  {
                    OFFSET 2.33842 -0.294052 0.168128
                  }
                }
              }
              JOINT lPinky1
              {
                OFFSET 8.27202 -0.0477905 -0.4584
                CHANNELS 3 Zrotation Xrotation Yrotation
                JOINT lPinky2
                {
                  OFFSET 1.82734 -0.647385 -0.700984
                  CHANNELS 3 Zrotation Xrotation Yrotation
                  End Site
                  {
                    OFFSET 1.69225 -0.51767 -0.607171
                  }
                }
              }
            }
          }
        }
      }
    }
  }
  JOINT rButtock
  {
    OFFSET -8.77824 4.35084 1.2192
    CHANNELS 3 Zrotation Xrotation Yrotation
    JOINT rThigh
    {
      OFFSET 0 -1.70687 -2.19456
      CHANNELS 3 Zrotation Xrotation Yrotation
      JOINT rShin
      {
        OFFSET 0 -36.8199 0.73152
        CHANNELS 3 Zrotation Xrotation Yrotation
        JOINT rFoot
        {
          OFFSET 0.73152 -45.1104 -5.12064
          CHANNELS 3 Zrotation Xrotation Yrotation
          End Site
          {
            OFFSET -1.1221 -3.69964 12.103
          }
        }
      }
    }
  }
  JOINT lButtock
  {
    OFFSET 8.77824 4.35084 1.2192
    CHANNELS 3 Zrotation Xrotation Yrotation
    JOINT lThigh
    {
      OFFSET 0 -1.70687 -2.19456
      CHANNELS 3 Zrotation Xrotation Yrotation
      JOINT lShin
      {
        OFFSET 0 -36.8199 0.73152
        CHANNELS 3 Zrotation Xrotation Yrotation
        JOINT lFoot
        {
          OFFSET -0.73152 -45.1104 -5.12064
          CHANNELS 3 Zrotation Xrotation Yrotation
          End Site
          {
            OFFSET 1.1221 -3.69964 12.103
          }
        }
      }
    }
  }
}
MOTION
Frames:	4
Frame Time:	0.00833333
43.2951 79.7118 -114.811 -0.9762 6.2079 22.4276 -8.24804 35.5486 12.756 2.82847 -5.99542 3.15131 -5.00294 -11.0523 -5.94957 11.4042 6.12755 -9.98336 -0.0 0.0 0.0 -0.0 0.0 0.0 3.42179e-13 3.27427e-14 -1.46904e-13 46.3778 -5.47618 53.6711 -10.8262 -4.65847 19.361 -0.269177 14.611 2.09957 5.92142e-09 -3.76402e-09 -3.60309e-10 1.0229e-08 -6.3805e-09 -6.98429e-10 5.92141e-09 -3.764e-09 -3.6033e-10 7.73091 5.47488 0.417314 5.92142e-09 -3.76401e-09 -3.60304e-10 2.90554 0.965183 0.102902 5.92142e-09 -3.76401e-09 -3.60304e-10 10.2786 0.731801 0.0259123 5.92141e-09 -3.76401e-09 -3.60291e-10 2.22167 -0.733487 -0.20892 3.42067e-13 3.27565e-14 -1.47141e-13 -62.8872 34.6841 -16.0048 19.0059 -11.8111 -36.3166 0.359912 -16.822 2.43521 -2.72934e-09 -1.68148e-09 4.97694e-10 -4.73071e-09 -2.90568e-09 8.27885e-10 -2.72934e-09 -1.68147e-09 4.97705e-10 -7.73091 5.47488 -0.417314 -2.72934e-09 -1.68148e-09 4.97696e-10 -2.90554 0.965183 -0.102902 -2.72935e-09 -1.68148e-09 4.97696e-10 -10.2786 0.731801 -0.0259123 -2.72934e-09 -1.68147e-09 4.97692e-10 -2.22167 -0.733487 0.20892 -2.03217e-16 0.0 -3.88251e-19 169.644 -82.2581 -175.139 -35.66 88.2509 36.282 3.97947 0.468722 25.6587 2.03217e-16 0.0 3.88251e-19 1.48722 -38.3061 -1.68873 0.305213 47.2875 -1.82304 -4.60392 -11.1034 -19.8482
43.3454 79.1831 -113.545 -0.6985 6.4731 22.056 -8.40295 35.244 12.5539 2.95708 -6.02149 3.09222 -4.56285 -10.8439 -5.80663 10.9221 6.89323 -9.9523 -0.0 0.0 0.0 -0.0 0.0 0.0 3.96027e-13 6.3516e-15 -1.19171e-13 46.1483 -5.10683 53.3348 -11.0097 -4.77798 19.7091 -0.243259 13.9075 1.99429 5.55117e-09 -3.3898e-09 -6.18736e-10 9.58611e-09 -5.74302e-09 -1.13698e-09 5.55116e-09 -3.3898e-09 -6.18761e-10 7.73091 5.47488 0.417314 5.55117e-09 -3.3898e-09 -6.18732e-10 2.90554 0.965183 0.102902 5.55117e-09 -3.3898e-09 -6.18732e-10 10.2786 0.731801 0.0259123 5.55116e-09 -3.3898e-09 -6.1872e-10 2.22167 -0.733487 -0.20892 3.95907e-13 6.37004e-15 -1.1937e-13 -62.359 34.5618 -16.2053 18.9264 -11.7186 -36.1331 0.369651 -17.0345 2.46793 -3.12604e-09 -1.52812e-09 4.49565e-10 -5.41487e-09 -2.63912e-09 7.39333e-10 -3.12604e-09 -1.52812e-09 4.49575e-10 -7.73091 5.47488 -0.417314 -3.12603e-09 -1.52812e-09 4.49568e-10 -2.90554 0.965183 -0.102902 -3.12604e-09 -1.52812e-09 4.49567e-10 -10.2786 0.731801 -0.0259123 -3.12603e-09 -1.52812e-09 4.49562e-10 -2.22167 -0.733487 0.20892 -2.03217e-16 0.0 -3.88251e-19 166.293 -83.3233 -178.161 -19.6591 87.0523 20.3018 3.74405 0.597268 24.8045 2.03217e-16 0.0 3.88251e-19 1.17375 -37.9162 -2.15497 0.353908 48.8499 -1.85982 -4.88316 -11.404 -20.3659
43.3993 78.6315 -112.25 -0.4269 6.7797 21.6298 -8.47601 34.9601 12.3102 3.10447 -6.06499 3.03053 -4.13471 -10.6792 -5.67339 10.4367 7.7387 -9.92389 -0.0 0.0 0.0 -0.0 0.0 0.0 3.57108e-13 1.55516e-15 -1.29677e-13 45.8129 -4.64268 52.9055 -11.2113 -4.91132 20.0926 -0.218907 13.209 1.89034 4.73488e-09 -3.22106e-09 -4.34346e-10 8.17736e-09 -5.47255e-09 -8.05997e-10 4.73487e-09 -3.22105e-09 -4.34369e-10 7.73091 5.47488 0.417314 4.73488e-09 -3.22106e-09 -4.34342e-10 2.90554 0.965183 0.102902 4.73489e-09 -3.22106e-09 -4.34343e-10 10.2786 0.731801 0.0259123 4.73488e-09 -3.22106e-09 -4.34333e-10 2.22167 -0.733487 -0.20892 3.57031e-13 1.57528e-15 -1.29854e-13 -61.8281 34.3923 -16.4513 18.8524 -11.633 -35.9634 0.371688 -17.0767 2.47446 -2.7551e-09 -1.13063e-09 2.7019e-10 -4.77018e-09 -1.95071e-09 4.33104e-10 -2.7551e-09 -1.13063e-09 2.702e-10 -7.73091 5.47488 -0.417314 -2.7551e-09 -1.13063e-09 2.70192e-10 -2.90554 0.965183 -0.102902 -2.75511e-09 -1.13063e-09 2.70192e-10 -10.2786 0.731801 -0.0259123 -2.7551e-09 -1.13063e-09 2.70186e-10 -2.22167 -0.733487 0.20892 -2.03217e-16 0.0 -3.88251e-19 161.725 -84.4585 177.558 -13.3322 85.8111 13.9797 3.6897 0.280319 23.7771 2.03217e-16 0.0 3.88251e-19 0.818321 -37.3929 -2.7336 0.40624 50.3542 -1.89513 -5.22983 -11.8824 -20.8717
43.4521 78.0582 -110.927 -0.1839 7.1275 21.155 -8.49773 34.681 12.0325 3.27069 -6.12041 2.96542 -3.70455 -10.5453 -5.54676 9.92499 8.67409 -9.904 -0.0 0.0 0.0 -0.0 0.0 0.0 2.61298e-13 9.33255e-15 -1.61419e-13 45.3823 -4.07577 52.3848 -11.4315 -5.05836 20.5141 -0.195499 12.4836 1.78309 3.62966e-09 -3.16827e-09 1.76817e-11 6.27229e-09 -5.41034e-09 -9.66754e-12 3.62966e-09 -3.16826e-09 1.76662e-11 7.73091 5.47488 0.417314 3.62966e-09 -3.16827e-09 1.76889e-11 2.90554 0.965183 0.102902 3.62967e-09 -3.16827e-09 1.76842e-11 10.2786 0.731801 0.0259123 3.62966e-09 -3.16826e-09 1.76912e-11 2.22167 -0.733487 -0.20892 2.61296e-13 9.35319e-15 -1.61581e-13 -61.2836 34.1977 -16.7421 18.7797 -11.5491 -35.7973 0.368448 -17.0049 2.46341 -1.92597e-09 -5.82606e-10 1.24757e-11 -3.33233e-09 -1.00209e-09 -3.01956e-12 -1.92598e-09 -5.82605e-10 1.24886e-11 -7.73091 5.47488 -0.417314 -1.92597e-09 -5.82607e-10 1.24755e-11 -2.90554 0.965183 -0.102902 -1.92598e-09 -5.82606e-10 1.24785e-11 -10.2786 0.731801 -0.0259123 -1.92597e-09 -5.82603e-10 1.24726e-11 -2.22167 -0.733487 0.20892 -2.03217e-16 0.0 -3.88251e-19 154.904 -85.6488 170.997 -10.0765 84.6029 10.7161 3.74762 -0.39364 22.5848 2.03217e-16 0.0 3.88251e-19 0.407818 -36.7491 -3.4236 0.461029 51.8175 -1.92772 -5.64938 -12.5388 -21.3654
